PathFileType	4	(X/Y/Z)	c:/Users/goper/Files/vsCode/490R/osim_files/C05/C05_Fast_06.trc
DataRate	CameraRate	NumFrames	NumMarkers	Units                	OrigDataRate	OrigDataStartFrame	OrigNumFrames
250.00	250.00	4	36	mm	250.0	1825	2432
                Frame#	Time	LPSIS			LASIS			LTH1			LTH2			LTH3			LTH4			LLFE			LMFE			LSH1			LSH2			LSH3			LSH4			LLMAL			LMMAL			LCAL			LMTP5			LTOE			LMTP1			RPSIS			RASIS			RTH1			RTH2			RTH3			RTH4			RLFE			RMFE			RSH1			RSH2			RSH3			RSH4			RLMAL			RMMAL			RCAL			RMTP1			RTOE			RMTP5		
		X1	Y1	Z1	X2	Y2	Z2	X3	Y3	Z3	X4	Y4	Z4	X5	Y5	Z5	X6	Y6	Z6	X7	Y7	Z7	X8	Y8	Z8	X9	Y9	Z9	X10	Y10	Z10	X11	Y11	Z11	X12	Y12	Z12	X13	Y13	Z13	X14	Y14	Z14	X15	Y15	Z15	X16	Y16	Z16	X17	Y17	Z17	X18	Y18	Z18	X19	Y19	Z19	X20	Y20	Z20	X21	Y21	Z21	X22	Y22	Z22	X23	Y23	Z23	X24	Y24	Z24	X25	Y25	Z25	X26	Y26	Z26	X27	Y27	Z27	X28	Y28	Z28	X29	Y29	Z29	X30	Y30	Z30	X31	Y31	Z31	X32	Y32	Z32	X33	Y33	Z33	X34	Y34	Z34	X35	Y35	Z35	X36	Y36	Z36

1825	7.29600	-2965.79590	1047.52661	270.17664	-3170.29883	1009.71820	325.32901	-2993.93652	714.10522	381.46188	0.00000	0.00000	0.00000	-3070.24756	704.96417	368.88980	-3056.03711	645.21777	355.87558	-2997.69507	542.65668	344.87341	-2977.29224	539.98328	227.04419	-2860.45117	390.58926	352.89862	-2853.57251	348.52469	347.73270	-2921.72876	373.52127	358.47464	-2905.06934	333.58002	350.65195	-2819.06592	122.13278	305.43863	-2845.94067	131.38138	221.96651	-2755.94556	99.47916	257.38229	-2948.07300	50.12052	333.49954	-2989.02686	69.66613	272.21716	-2974.28540	60.99054	224.08307	-2963.36060	1046.07007	161.84602	-3156.91553	1013.00629	95.80667	0.00000	0.00000	0.00000	0.00000	0.00000	0.00000	0.00000	0.00000	0.00000	0.00000	0.00000	0.00000	0.00000	0.00000	0.00000	-3279.72656	558.74078	42.43341	0.00000	0.00000	0.00000	0.00000	0.00000	0.00000	-3314.73169	412.58340	18.98100	-3331.32617	368.93018	19.62444	-3401.70947	135.01463	41.54906	-3434.62378	159.35745	123.53933	0.00000	0.00000	0.00000	-3577.10278	154.92778	87.57663	-3570.34229	182.29837	38.89711	-3537.52100	131.21910	-16.68517
1826	7.30000	-2971.42407	1046.53894	269.15289	-3175.83252	1008.63721	324.91397	-2997.95947	713.76208	381.05588	-2993.53540	651.89618	370.05847	-3074.27783	704.23175	368.56763	-3059.73071	644.91638	358.51968	-3001.22412	542.79559	344.84290	-2980.32886	539.65454	226.85214	-2862.59277	391.09241	352.80194	-2855.37476	348.95541	347.64832	-2923.75732	373.63290	358.40964	-2906.76660	333.69699	350.60956	-2819.73511	122.60213	305.48849	-2846.47437	131.79289	222.06711	-2756.38599	100.27550	257.48877	-2948.14209	50.05028	333.54205	-2989.24341	69.54912	272.28809	-2974.44409	60.97087	224.12996	-2969.53589	1044.93713	160.94019	-3163.35742	1011.91821	95.28144	0.00000	0.00000	0.00000	0.00000	0.00000	0.00000	0.00000	0.00000	0.00000	0.00000	0.00000	0.00000	0.00000	0.00000	0.00000	-3284.43530	557.02759	41.46890	0.00000	0.00000	0.00000	0.00000	0.00000	0.00000	-3322.27686	412.12347	18.40446	-3339.73438	368.75504	19.02981	-3416.04663	135.12579	43.53366	-3446.83984	161.39056	123.49327	0.00000	0.00000	0.00000	-3589.48071	160.02071	87.79596	-3582.08691	187.03822	39.02612	-3546.83447	131.66449	-15.78357
1827	7.30400	-2976.99731	1046.10840	267.91245	-3181.20459	1007.55927	324.60233	-3002.08301	713.29376	380.59247	-2997.32788	651.60950	369.63803	-3078.42676	703.41119	368.36783	-3063.53320	644.17889	358.22275	-3004.20630	542.19470	344.06940	-2983.59351	539.32983	226.60513	-2865.20679	391.37170	353.03027	-2857.29956	349.32309	347.43536	-2925.83081	373.64276	358.29132	-2908.57544	333.81439	350.46820	-2820.20605	123.08980	305.64258	-2847.00195	132.21707	222.16432	-2756.73145	100.93767	257.58939	-2948.24268	49.98814	333.58765	-2989.42065	69.38351	272.35309	-2974.60059	60.95043	224.16193	-2975.62671	1043.31873	160.24373	-3169.68799	1010.76331	94.82465	0.00000	0.00000	0.00000	0.00000	0.00000	0.00000	0.00000	0.00000	0.00000	0.00000	0.00000	0.00000	0.00000	0.00000	0.00000	-3289.16162	555.30536	40.48417	0.00000	0.00000	0.00000	0.00000	0.00000	0.00000	-3329.72388	411.66229	17.84756	-3346.98706	367.52707	18.99294	-3428.43726	136.16444	43.62398	-3458.55811	163.32953	123.58815	-3394.65771	79.38979	100.65707	-3601.31226	164.75961	88.30293	-3593.33032	191.38789	39.26474	-3559.34961	135.24571	-15.39425
1828	7.30800	-2982.59253	1044.60693	267.19269	-3186.69751	1006.41394	324.32556	-3006.28516	712.86981	380.28870	-3001.18701	651.21216	369.34912	-3082.73462	702.63995	368.14874	-3067.45703	643.43243	357.96567	-3007.12842	541.46832	343.64102	-2987.02808	538.93134	226.26646	-2867.19092	391.87115	352.48477	-2859.30151	349.88321	347.22415	-2927.99683	373.55338	358.09247	-2910.53320	333.92242	350.28110	-2820.74414	123.68745	305.80875	-2847.97168	132.47186	222.65315	-2756.82007	101.25181	257.56381	-2948.28955	49.93769	333.64270	-2990.10352	69.57428	272.74243	-2974.75244	60.91201	224.22652	-2981.58447	1042.72339	158.89223	-3175.95557	1009.60681	94.37309	0.00000	0.00000	0.00000	0.00000	0.00000	0.00000	0.00000	0.00000	0.00000	0.00000	0.00000	0.00000	0.00000	0.00000	0.00000	-3294.13770	553.82349	39.58051	0.00000	0.00000	0.00000	0.00000	0.00000	0.00000	-3337.09473	411.24368	17.32703	-3354.89746	367.26871	18.64525	-3438.84155	136.02635	44.01818	-3469.62842	165.19409	123.86204	-3408.74609	80.03131	101.81406	-3612.62720	169.26407	88.84910	-3604.01978	195.33049	39.75929	-3571.28101	138.42554	-14.86152
